<svg width="270" height="141" viewBox="0 0 270 141" fill="none" xmlns="http://www.w3.org/2000/svg">
<g clip-path="url(#clip0_163_15)">
<path d="M139.905 70.6532C139.905 66.1956 133.774 67.1073 133.774 64.7628C133.774 63.7928 134.555 63.4064 135.745 63.4064C136.956 63.4064 138.129 63.6962 138.851 64.1228L139.711 62.0882C138.638 61.5267 137.327 61.1967 135.786 61.1967C132.699 61.1967 131.137 62.8248 131.137 64.801C131.137 69.4135 137.23 68.037 137.23 70.8082C137.23 71.7963 136.411 72.5328 135.2 72.5328C133.989 72.5328 132.602 71.9331 131.841 71.2731L130.863 73.2694C131.918 74.0442 133.403 74.664 135.161 74.664C138.167 74.664 139.905 72.726 139.905 70.6532ZM150.003 70.4017V69.2968C150.003 66.9141 148.871 64.7829 145.981 64.7829C142.914 64.7829 141.488 66.7772 141.488 69.7033C141.488 72.8428 143.247 74.664 146.196 74.664C147.699 74.664 149.007 74.1609 149.808 73.7343L149.319 71.9512C148.48 72.3779 147.484 72.7462 146.508 72.7462C144.906 72.7462 144.048 71.913 144.048 70.4017H150.003ZM147.543 68.9084H144.048C144.048 67.7855 144.575 66.6424 145.843 66.6424C147.171 66.6424 147.543 67.6889 147.543 68.9084ZM157.426 64.9378C157.211 64.8795 156.819 64.801 156.312 64.801C155.18 64.801 154.32 65.5758 154.026 66.254H153.969L153.696 64.9761H151.917V74.4708H154.456V67.5721C154.886 67.224 155.493 66.9322 156.176 66.9322C156.604 66.9322 157.054 66.9906 157.367 67.0871L157.426 64.9378ZM167.424 64.9761H164.846L162.855 72.9394H162.778L160.766 64.9761H157.894L160.766 74.4708H164.495L167.424 64.9761ZM172.034 74.4708V64.9761H168.381V66.5639L169.494 66.7974V74.4708H172.034ZM169.417 63.4064H171.995V61.1001H169.417V63.4064ZM181.506 72.0297C180.881 72.3779 179.905 72.7462 178.909 72.7462C177.522 72.7462 176.721 71.8748 176.721 69.7235C176.721 67.5923 177.561 66.7008 178.889 66.7008C179.729 66.7008 180.607 66.8738 181.291 67.2824L181.956 65.5577C181.037 65.0344 179.944 64.7829 178.674 64.7829C175.843 64.7829 174.125 66.6223 174.125 69.7235C174.125 73.0561 175.843 74.664 178.694 74.664C180.139 74.664 181.429 74.1227 181.974 73.8309L181.506 72.0297ZM186.994 74.4708V64.9761H183.342V66.5639L184.455 66.7974V74.4708H186.994ZM184.378 63.4064H186.956V61.1001H184.378V63.4064ZM193.419 64.7829C190.491 64.7829 188.929 66.9141 188.929 69.7033C188.929 72.9595 190.549 74.664 193.419 74.664C196.271 74.664 197.912 72.9394 197.912 69.7033C197.912 66.9141 196.31 64.7829 193.419 64.7829ZM193.419 72.8045C192.17 72.8045 191.564 71.913 191.564 69.7033C191.564 67.4373 192.229 66.6223 193.419 66.6223C194.612 66.6223 195.295 67.4172 195.295 69.7033C195.295 71.9714 194.669 72.8045 193.419 72.8045ZM207.932 64.7829C205.607 64.7829 203.81 66.584 203.81 69.7235C203.81 73.1144 205.549 74.664 207.717 74.664C208.946 74.664 209.865 74.006 210.256 73.4244L210.548 74.4708H212.619V61.1001H210.08V63.9678C210.08 64.6843 210.157 65.1693 210.315 65.7126C209.788 65.131 208.966 64.7829 207.932 64.7829ZM210.08 72.0096C209.591 72.5127 208.946 72.8247 208.303 72.8247C207.092 72.8247 206.368 71.9714 206.368 69.7033C206.368 67.4957 207.131 66.6806 208.342 66.6806C209.084 66.6806 209.688 66.9141 210.08 67.1455V72.0096ZM223.066 70.4017V69.2968C223.066 66.9141 221.935 64.7829 219.044 64.7829C215.978 64.7829 214.552 66.7772 214.552 69.7033C214.552 72.8428 216.31 74.664 219.259 74.664C220.762 74.664 222.071 74.1609 222.872 73.7343L222.383 71.9512C221.543 72.3779 220.547 72.7462 219.572 72.7462C217.969 72.7462 217.112 71.913 217.112 70.4017H223.066ZM220.606 68.9084H217.112C217.112 67.7855 217.639 66.6424 218.907 66.6424C220.235 66.6424 220.606 67.6889 220.606 68.9084ZM140.668 89.8379C140.668 88.23 139.437 87.1453 137.836 86.8535V86.7569C138.989 86.4087 139.964 85.4971 139.964 83.8891C139.964 81.7378 138.167 80.5162 135.356 80.5162H131.373V93.074C132.583 93.5187 133.636 93.7904 135.648 93.7904C138.597 93.7904 140.668 92.2026 140.668 89.8379ZM137.269 84.1407C137.269 85.4971 136.567 86.0002 135.259 86.0002H133.93V82.5911H135.259C136.567 82.5911 137.269 83.0741 137.269 84.1407ZM137.972 89.7212C137.972 91.0977 136.918 91.7176 135.648 91.7176C134.906 91.7176 134.36 91.5626 133.93 91.4076V87.8798H135.689C137.171 87.8798 137.972 88.4433 137.972 89.7212ZM145.668 93.5972V84.1024H142.015V85.6903L143.129 85.9237V93.5972H145.668ZM143.052 82.5327H145.629V80.2265H143.052V82.5327ZM152.093 83.9092C149.164 83.9092 147.602 86.0404 147.602 88.8297C147.602 92.0858 149.223 93.7904 152.093 93.7904C154.945 93.7904 156.585 92.0657 156.585 88.8297C156.585 86.0404 154.983 83.9092 152.093 83.9092ZM152.093 91.9309C150.843 91.9309 150.237 91.0394 150.237 88.8297C150.237 86.5637 150.902 85.7486 152.093 85.7486C153.285 85.7486 153.969 86.5435 153.969 88.8297C153.969 91.0977 153.342 91.9309 152.093 91.9309ZM162.308 83.9092C159.984 83.9092 158.187 85.7104 158.187 88.8498C158.187 92.2408 159.925 93.7904 162.094 93.7904C163.323 93.7904 164.241 93.1323 164.633 92.5507L164.925 93.5972H166.996V80.2265H164.456V83.0942C164.456 83.8106 164.533 84.2956 164.692 84.839C164.164 84.2574 163.343 83.9092 162.308 83.9092ZM164.456 91.136C163.968 91.6391 163.323 91.951 162.68 91.951C161.469 91.951 160.745 91.0977 160.745 88.8297C160.745 86.622 161.507 85.807 162.718 85.807C163.461 85.807 164.065 86.0404 164.456 86.2719V91.136ZM172.62 93.5972V84.1024H168.967V85.6903L170.081 85.9237V93.5972H172.62ZM170.004 82.5327H172.581V80.2265H170.004V82.5327ZM183.458 84.1024H180.88L178.889 92.0657H178.812L176.8 84.1024H173.928L176.8 93.5972H180.53L183.458 84.1024ZM192.892 89.528V88.4232C192.892 86.0404 191.76 83.9092 188.87 83.9092C185.803 83.9092 184.377 85.9036 184.377 88.8297C184.377 91.9691 186.136 93.7904 189.085 93.7904C190.587 93.7904 191.896 93.2873 192.697 92.8606L192.208 91.0776C191.368 91.5042 190.372 91.8725 189.397 91.8725C187.795 91.8725 186.937 91.0394 186.937 89.528H192.892ZM190.431 88.0348H186.937C186.937 86.9118 187.464 85.7688 188.732 85.7688C190.06 85.7688 190.431 86.8152 190.431 88.0348ZM200.314 84.0642C200.099 84.0058 199.708 83.9274 199.201 83.9274C198.069 83.9274 197.209 84.7022 196.915 85.3804H196.858L196.584 84.1024H194.806V93.5972H197.345V86.6985C197.775 86.3504 198.381 86.0585 199.065 86.0585C199.493 86.0585 199.943 86.1169 200.256 86.2135L200.314 84.0642ZM205.118 85.7305C205.958 85.7305 206.779 85.9237 207.424 86.2135L207.775 84.3741C207.11 84.1024 206.075 83.9092 205.08 83.9092C202.502 83.9092 201.427 85.167 201.427 86.5637C201.427 89.7997 205.51 89.2362 205.51 90.9428C205.51 91.5244 204.944 91.9892 204.104 91.9892C203.224 91.9892 202.287 91.6391 201.839 91.3292L201.311 93.0941C201.954 93.4624 203.029 93.7904 204.181 93.7904C206.662 93.7904 207.952 92.4541 207.952 90.7295C207.952 87.6283 203.81 88.075 203.81 86.6019C203.81 86.0585 204.24 85.7305 205.118 85.7305ZM213.282 93.5972V84.1024H209.629V85.6903L210.743 85.9237V93.5972H213.282ZM210.666 82.5327H213.244V80.2265H210.666V82.5327ZM219.416 83.9092C217.091 83.9092 215.294 85.7104 215.294 88.8498C215.294 92.2408 217.032 93.7904 219.201 93.7904C220.43 93.7904 221.349 93.1323 221.74 92.5507L222.032 93.5972H224.103V80.2265H221.563V83.0942C221.563 83.8106 221.641 84.2956 221.799 84.839C221.271 84.2574 220.45 83.9092 219.416 83.9092ZM221.563 91.136C221.075 91.6391 220.43 91.951 219.787 91.951C218.576 91.951 217.852 91.0977 217.852 88.8297C217.852 86.622 218.614 85.807 219.825 85.807C220.568 85.807 221.172 86.0404 221.563 86.2719V91.136ZM234.043 93.5972V87.5699C234.043 85.1489 232.871 83.9092 230.157 83.9092C228.652 83.9092 227.344 84.2755 226.387 84.684L227.032 86.4852C227.812 86.137 228.77 85.8452 229.904 85.8452C230.879 85.8452 231.583 86.2336 231.583 87.4552V87.9382H229.571C227.267 87.9382 225.959 88.9847 225.959 90.7496C225.959 92.5708 227.247 93.7904 229.161 93.7904C230.508 93.7904 231.465 93.1323 231.954 92.4742L232.305 93.5972H234.043ZM231.583 91.4278C231.114 91.7961 230.49 92.0657 229.883 92.0657C228.926 92.0657 228.457 91.5425 228.457 90.6711C228.457 89.9547 228.946 89.4495 230.001 89.4495H231.583V91.4278ZM240.079 83.9092C237.755 83.9092 235.958 85.7104 235.958 88.8498C235.958 92.2408 237.696 93.7904 239.864 93.7904C241.093 93.7904 242.012 93.1323 242.403 92.5507L242.696 93.5972H244.766V80.2265H242.227V83.0942C242.227 83.8106 242.304 84.2956 242.462 84.839C241.935 84.2574 241.114 83.9092 240.079 83.9092ZM242.227 91.136C241.738 91.6391 241.093 91.951 240.45 91.951C239.239 91.951 238.515 91.0977 238.515 88.8297C238.515 86.622 239.278 85.807 240.489 85.807C241.231 85.807 241.836 86.0404 242.227 86.2719V91.136ZM254.941 93.6556C254.59 94.8771 253.927 95.5734 252.911 95.5734C252.012 95.5734 251.211 94.9536 251.134 94.8952H250.899L250.098 96.6199C250.507 96.9681 251.718 97.5698 252.793 97.5698C254.766 97.5698 256.152 96.5615 256.973 93.8306L259.922 84.1024H257.383L255.332 92.0657H255.294L253.262 84.1024H250.392L253.241 93.6938L255.02 93.3839L254.941 93.6556ZM133.52 109.778H138.051L138.735 112.724H141.605L138.149 99.6431H133.892L130.318 112.724H132.817L133.52 109.778ZM136.234 101.873L137.583 107.725H133.989L135.433 101.873H136.234ZM138.715 98.6168L138.735 96.7573L133.344 97.4737C133.364 97.6669 133.52 98.7335 133.539 98.9267L138.715 98.6168ZM148.481 103.191C148.266 103.133 147.874 103.054 147.367 103.054C146.235 103.054 145.375 103.829 145.081 104.507H145.025L144.751 103.229H142.972V112.724H145.511V105.825C145.941 105.477 146.548 105.185 147.231 105.185C147.659 105.185 148.109 105.244 148.422 105.34L148.481 103.191ZM157.62 108.655V107.55C157.62 105.167 156.488 103.036 153.598 103.036C150.531 103.036 149.105 105.03 149.105 107.957C149.105 111.096 150.864 112.917 153.813 112.917C155.316 112.917 156.624 112.414 157.425 111.987L156.936 110.204C156.097 110.631 155.101 110.999 154.125 110.999C152.523 110.999 151.665 110.166 151.665 108.655H157.62ZM155.16 107.162H151.665C151.665 106.039 152.192 104.896 153.46 104.896C154.788 104.896 155.16 105.942 155.16 107.162ZM167.19 112.724V106.697C167.19 104.276 166.018 103.036 163.304 103.036C161.799 103.036 160.491 103.402 159.534 103.811L160.179 105.612C160.96 105.264 161.917 104.972 163.051 104.972C164.026 104.972 164.73 105.36 164.73 106.582V107.065H162.718C160.414 107.065 159.106 108.112 159.106 109.876C159.106 111.698 160.394 112.917 162.308 112.917C163.655 112.917 164.613 112.259 165.101 111.601L165.452 112.724H167.19ZM164.73 110.555C164.262 110.923 163.637 111.193 163.031 111.193C162.073 111.193 161.605 110.669 161.605 109.798C161.605 109.082 162.094 108.576 163.148 108.576H164.73V110.555ZM172.932 104.857C173.771 104.857 174.593 105.051 175.238 105.34L175.589 103.501C174.924 103.229 173.889 103.036 172.893 103.036C170.315 103.036 169.24 104.294 169.24 105.691C169.24 108.927 173.323 108.363 173.323 110.07C173.323 110.651 172.757 111.116 171.918 111.116C171.037 111.116 170.1 110.766 169.652 110.456L169.125 112.221C169.768 112.589 170.843 112.917 171.995 112.917C174.475 112.917 175.765 111.581 175.765 109.856C175.765 106.755 171.624 107.202 171.624 105.729C171.624 105.185 172.054 104.857 172.932 104.857ZM191.155 103.732C191.155 100.923 188.831 99.6431 186.135 99.6431H182.131V112.724H184.689V108.17H186.135C189.24 108.17 191.155 106.252 191.155 103.732ZM188.439 103.829C188.439 105.264 187.579 106.174 186.076 106.174H184.689V101.794H186.076C187.541 101.794 188.439 102.493 188.439 103.829ZM198.166 103.191C197.951 103.133 197.559 103.054 197.052 103.054C195.921 103.054 195.061 103.829 194.767 104.507H194.71L194.436 103.229H192.657V112.724H195.197V105.825C195.627 105.477 196.233 105.185 196.917 105.185C197.344 105.185 197.795 105.244 198.107 105.34L198.166 103.191ZM203.263 103.036C200.334 103.036 198.772 105.167 198.772 107.957C198.772 111.213 200.393 112.917 203.263 112.917C206.115 112.917 207.755 111.193 207.755 107.957C207.755 105.167 206.153 103.036 203.263 103.036ZM203.263 111.058C202.013 111.058 201.407 110.166 201.407 107.957C201.407 105.691 202.072 104.875 203.263 104.875C204.455 104.875 205.139 105.67 205.139 107.957C205.139 110.225 204.512 111.058 203.263 111.058ZM215.783 112.279L215.391 110.418C215.002 110.611 214.454 110.766 213.927 110.766C213.243 110.766 212.913 110.341 212.913 109.681V105.03H215.47V103.229H212.913V100.768L210.392 101.581V103.229H208.966V105.03H210.392V109.74C210.392 112.124 211.505 112.917 213.205 112.917C214.221 112.917 215.217 112.607 215.783 112.279ZM225.078 108.655V107.55C225.078 105.167 223.946 103.036 221.056 103.036C217.989 103.036 216.563 105.03 216.563 107.957C216.563 111.096 218.322 112.917 221.271 112.917C222.774 112.917 224.082 112.414 224.883 111.987L224.394 110.204C223.555 110.631 222.559 110.999 221.583 110.999C219.981 110.999 219.123 110.166 219.123 108.655H225.078ZM222.618 107.162H219.123C219.123 106.039 219.65 104.896 220.918 104.896C222.246 104.896 222.618 105.942 222.618 107.162ZM230.84 103.036C229.298 103.036 226.895 103.753 226.895 106.272C226.895 107.629 227.657 108.421 228.615 108.945C227.54 109.023 226.797 109.605 226.797 110.4C226.797 111.502 227.99 111.871 229.18 112.008C227.619 112.239 226.641 112.879 226.641 114.101C226.641 115.843 228.673 116.717 230.683 116.717C233.087 116.717 235.235 115.495 235.235 113.267C235.235 109.701 229.16 110.903 229.16 109.876C229.16 109.623 229.337 109.45 229.629 109.353C230.04 109.45 230.489 109.526 230.86 109.526C232.48 109.526 234.805 108.597 234.805 106.272C234.728 105.65 234.277 105.167 233.847 104.779C234.492 104.992 235.196 105.089 235.644 105.109L235.683 103.229C234.024 103.209 231.876 103.036 230.84 103.036ZM232.716 113.44C232.716 114.429 231.953 115.01 230.801 115.01C229.767 115.01 229.004 114.41 229.004 113.577C229.004 112.762 229.572 112.259 230.468 112.181C231.973 112.297 232.716 112.607 232.716 113.44ZM230.84 107.743C230.04 107.743 229.122 107.453 229.122 106.252C229.122 105.127 230.097 104.837 230.84 104.837C231.582 104.837 232.539 105.127 232.539 106.252C232.539 107.453 231.622 107.743 230.84 107.743ZM240.664 112.724V103.229H237.011V104.817L238.125 105.051V112.724H240.664ZM238.048 101.66H240.626V99.3533H238.048V101.66ZM246.798 103.036C244.473 103.036 242.676 104.837 242.676 107.977C242.676 111.368 244.414 112.917 246.583 112.917C247.812 112.917 248.73 112.259 249.122 111.678L249.414 112.724H251.485V99.3533H248.945V102.221C248.945 102.937 249.023 103.422 249.181 103.966C248.653 103.384 247.832 103.036 246.798 103.036ZM248.945 110.263C248.457 110.766 247.812 111.078 247.169 111.078C245.958 111.078 245.234 110.225 245.234 107.957C245.234 105.749 245.996 104.934 247.207 104.934C247.95 104.934 248.554 105.167 248.945 105.399V110.263ZM261.425 112.724V106.697C261.425 104.276 260.253 103.036 257.539 103.036C256.034 103.036 254.726 103.402 253.769 103.811L254.414 105.612C255.194 105.264 256.152 104.972 257.286 104.972C258.261 104.972 258.965 105.36 258.965 106.582V107.065H256.953C254.649 107.065 253.341 108.112 253.341 109.876C253.341 111.698 254.629 112.917 256.543 112.917C257.89 112.917 258.847 112.259 259.336 111.601L259.687 112.724H261.425ZM258.965 110.555C258.496 110.923 257.872 111.193 257.265 111.193C256.308 111.193 255.839 110.669 255.839 109.798C255.839 109.082 256.328 108.576 257.383 108.576H258.965V110.555ZM267.167 104.857C268.006 104.857 268.828 105.051 269.473 105.34L269.823 103.501C269.158 103.229 268.124 103.036 267.128 103.036C264.55 103.036 263.475 104.294 263.475 105.691C263.475 108.927 267.558 108.363 267.558 110.07C267.558 110.651 266.992 111.116 266.152 111.116C265.272 111.116 264.335 110.766 263.887 110.456L263.36 112.221C264.003 112.589 265.077 112.917 266.229 112.917C268.71 112.917 270 111.581 270 109.856C270 106.755 265.858 107.202 265.858 105.729C265.858 105.185 266.288 104.857 267.167 104.857Z" fill="white"/>
<path d="M48.3813 7.83333H117.832V0H48.3813V7.83333Z" fill="#EB3C46"/>
<path d="M117.5 82.5C117.5 114.533 91.5848 141 59 141C26.4152 141 0.5 115.533 0.5 83.5C0.5 51.4675 26.4152 25 59 25C91.5848 25 117.5 50.4675 117.5 82.5Z" fill="white"/>
<path d="M114.058 61.8833L113.181 62.6978C112.31 63.4597 111.592 64.1695 111.304 64.4611L82.7813 102.552C81.905 103.723 80.5642 104.455 79.1029 104.56C77.6335 104.658 76.2099 104.133 75.1739 103.099L72.4659 100.399C71.6526 99.5887 70.8907 99.1638 70.3349 99.2113C69.7241 99.2599 69.1278 99.8689 68.9673 100.078L62.5948 108.605C62.3959 108.921 61.8126 109.811 60.892 110.925C48.7737 127.09 42.2872 132.566 35.2351 132.566C33.8499 132.566 32.4253 132.359 30.7515 131.915C30.252 131.783 28.8373 131.691 27.312 131.628C36.4843 137.55 47.4111 141 59.1516 141C91.5599 141 117.832 114.803 117.832 82.4885C117.832 75.2313 116.481 68.2953 114.058 61.8833Z" fill="#99AE2F"/>
<path d="M59.2233 24.2834C63.8713 24.2834 68.3916 24.8133 72.7305 25.8055C72.2318 27.2519 71.8357 29.6517 71.8357 33.6336C71.8304 33.634 67.8847 33.9261 67.8142 31.3012C67.7439 28.6803 66.198 28.5368 66.1911 28.5362C66.1911 28.5362 63.8618 28.5361 64.0736 31.5086C64.2852 34.4809 65.2338 36.4832 69.0649 38.5578C69.0649 38.5578 62.4503 41.601 60.5446 36.8313C58.6392 32.0616 57.9333 30.9556 56.1688 31.163C54.4045 31.3704 53.9103 35.7226 55.5336 38.5578C57.1568 41.3937 61.1799 46.9926 69.0846 45.1955C69.0756 45.2107 64.7006 52.7109 57.0862 48.1679C51.1532 43.6818 49.897 41.4312 49.891 41.4202C49.891 41.4202 47.9212 38.848 46.0828 40.5841C44.2478 42.3172 46.8609 45.7803 46.8707 45.7934C46.8707 45.7934 54.7352 58.5673 68.2611 55.598C68.2611 55.598 71.2773 55.796 71.2773 60.5468V95.5054C70.8534 95.4228 70.4275 95.3941 69.9999 95.4264C67.8005 95.5972 66.4125 97.2792 66.1546 97.6169L63.5425 101.05C62.344 89.7689 52.6161 80.9704 40.7806 80.9704C29.5124 80.9704 20.1865 88.9562 18.2809 99.4567C13.5535 98.6922 8.31014 98.5334 2.52103 98.9759C0.896851 93.6892 0 88.0943 0 82.288C1.94105e-05 50.2532 26.5151 24.2834 59.2233 24.2834ZM103.557 43.8607C107.445 48.1639 110.692 53.0345 113.15 58.3326L111.347 59.9787C110.319 60.8605 109.457 61.7117 109.217 61.9516L80.1339 100.077C79.839 100.464 79.388 100.706 78.894 100.741C78.6096 100.762 78.3309 100.703 78.0755 100.59V60.5468C78.0755 55.796 81.0919 55.598 81.0919 55.598C94.6116 58.5659 102.475 45.8053 102.482 45.7935C102.482 45.7935 103.13 44.9359 103.557 43.8607ZM94.7098 35.8663C96.6884 37.3208 98.5719 38.8916 100.348 40.5724C99.8138 40.9668 99.466 41.4148 99.4619 41.4201C99.4619 41.4201 98.2143 43.6711 92.2666 48.1679C84.2938 53.3555 80.2801 45.2193 80.2684 45.1955C88.1728 46.9928 92.1959 41.3936 93.8192 38.558C94.2867 37.7415 94.5734 36.7995 94.7098 35.8663ZM32.6807 41.9724L29.9784 42.2265L32.0418 43.984L31.4741 46.5991L33.7927 45.2264L36.1451 46.5942L35.5259 43.9805L37.5336 42.2185L34.8379 41.9701L33.7229 39.5202L32.6807 41.9724ZM85.1655 30.1442C86.9945 31.0195 88.7709 31.9825 90.4882 33.0311C90.0119 33.9067 89.4867 35.1332 88.8083 36.8313C86.9025 41.6009 80.288 38.558 80.288 38.558C84.119 36.483 85.0677 34.4808 85.2793 31.5085C85.3185 30.9575 85.2698 30.5099 85.1655 30.1442ZM76.9562 26.9369C78.8164 27.5085 80.638 28.1645 82.4139 28.9061C82.0053 29.2595 81.5751 29.946 81.5387 31.3012C81.468 33.9227 77.5332 33.6348 77.5174 33.6336C77.5174 30.5488 77.2856 28.4156 76.9562 26.9369Z" fill="#D9D9D8"/>
<path d="M47.6803 118.728L47.3755 118.732C43.7006 118.732 40.2333 116.943 37.0709 113.412C29.7345 105.223 18.8617 101.752 3.90186 102.798C7.60287 113.147 14.0019 122.158 22.2327 128.939L22.6144 128.947C26.9641 129.038 29.8958 129.159 31.0711 129.48C32.4558 129.858 33.6063 130.033 34.6923 130.033C38.5912 130.033 42.7737 127.852 50.7227 118.199C49.6761 118.523 48.6563 118.702 47.6803 118.728Z" fill="#00B5CC"/>
<path d="M39.0602 118.227C39.4087 109.999 41.3807 107.233 41.3807 107.233C52.9828 104.173 53.3815 99.9923 53.7828 97.6664C54.1842 95.3404 52.4871 95.8325 52.0658 96.8671C51.6444 97.9018 50.6265 97.6845 50.6265 97.6845C43.9271 96.5657 41.0666 98.5744 41.0666 98.5744C33.3247 93.1758 31.5171 96.779 30.2325 93.7948C28.9481 90.8105 28.3081 93.6628 28.3081 93.6628C26.4301 101.093 37.4084 105.821 38.0387 107.547C38.669 109.271 35.2084 116.791 35.2084 116.791C35.5158 117.297 36.0076 117.243 36.6038 117.173C37.1751 117.137 37.6364 117.33 37.961 117.805C38.2779 118.293 38.5328 118.352 39.0602 118.227Z" fill="#193D6C"/>
<path d="M56.9603 68.4124C57.1541 67.7207 51.5402 66.3121 49.4883 65.9989C49.0088 65.9666 37.9129 62.5381 37.9416 62.0691C37.9739 61.5357 37.4908 61.0445 36.8532 60.9872C37.1953 60.6501 37.6195 60.2938 37.9755 60.187C38.7052 59.9686 40.1197 59.1679 39.5066 59.182C38.8935 59.1962 38.4161 59.0313 38.4161 59.0313C37.4089 58.2675 36.0168 59.0473 35.1243 59.7283C35.1175 59.7335 35.1096 59.7326 35.1044 59.7261C34.859 59.4195 34.3562 59.014 33.4943 59.2848C32.2922 59.6624 22.8821 49.7863 21.3445 46.2329C20.1566 44.3919 16.2818 39.5494 15.576 39.9765C15.0123 40.3179 20.1193 46.2024 19.9254 46.5267C19.7314 46.8512 14.3169 40.5575 13.6588 41.214C13.1715 41.7004 18.7211 47.0502 18.4884 47.4128C18.1589 47.7371 12.6447 42.4498 12.0361 43.2029C11.6536 43.6759 17.3054 47.7949 17.0998 48.0326C16.8546 48.316 12.0592 45.0622 11.7103 45.8786C11.5272 46.3073 16.2201 48.4811 16.0843 48.8055C15.9488 49.1298 12.515 47.7869 12.4159 48.2542C12.3229 48.6939 15.4999 50.5729 15.4999 50.5729C15.6349 50.738 15.7717 50.9174 15.9099 51.1125L15.9126 51.1101C18.7893 55.3131 21.7842 59.1011 25.0488 61.944C25.0779 61.9675 25.1064 61.9904 25.1355 62.0135L26.35 62.9109C26.35 62.9109 21.6011 63.0176 21.5489 63.1163C21.345 63.5011 21.706 66.1864 22.0907 66.4641C22.4556 66.7277 23.5781 66.5576 23.5781 66.5576C23.5781 66.5576 22.4367 67.0068 22.7528 67.5018C22.9587 67.8248 23.4328 68.2068 23.7375 68.4335C23.904 68.5572 24.126 68.5696 24.3078 68.4692L24.9933 68.0899C24.9933 68.0899 24.3883 68.8583 24.5692 69.1414C24.7495 69.4241 25.4891 69.4933 25.6699 69.7762C25.8504 70.0591 27.4476 70.6834 27.9251 70.388C28.4029 70.0926 28.7554 69.1844 28.7554 69.1844L28.8995 70.1493C29.4287 70.6944 31.464 70.0189 32.3071 69.7207C32.5231 69.6444 32.6488 69.4291 32.6118 69.2063L32.2302 66.9053C32.2302 66.9053 32.6336 66.8388 33.4875 67.4434C34.8993 68.4428 45.5628 71.2709 46.6924 71.4059C46.9416 71.4541 47.1705 71.5105 47.3811 71.5734C47.3811 71.5734 49.8767 73.7843 50.1799 73.6251C50.5942 73.4078 48.3499 71.1644 48.6122 70.9511C48.8745 70.7375 52.2446 73.6701 52.5899 73.385C53.248 72.842 48.8451 70.1885 49.0381 69.9032C49.1997 69.6641 54.6527 72.6971 54.9821 72.2419C55.5063 71.5175 49.0076 68.9801 49.2143 68.6156C49.484 68.314 56.051 70.8583 56.3626 70.317C56.7832 69.5861 49.3782 67.4606 49.6237 67.2017C49.8692 66.943 56.8055 68.9648 56.9603 68.4124Z" fill="#193D6C"/>
<path d="M0 7.83333H48.3815V0H0V7.83333Z" fill="#0F69B4"/>
</g>
<defs>
<clipPath id="clip0_163_15">
<rect width="270" height="141" fill="white"/>
</clipPath>
</defs>
</svg>
